<mxfile host="app.diagrams.net" modified="2022-05-10T04:22:33.767Z" agent="5.0 (Windows NT 10.0; Win64; x64) AppleWebKit/537.36 (KHTML, like Gecko) Chrome/100.0.4896.127 Safari/537.36" etag="hwl-reFXjPZ3BAQ3UwgV" version="18.0.2" type="github" pages="4">
  <diagram id="KApg9ZK0kmlz-gtaGevU" name="Page-1">
    <mxGraphModel dx="1038" dy="547" grid="1" gridSize="10" guides="1" tooltips="1" connect="1" arrows="1" fold="1" page="1" pageScale="1" pageWidth="827" pageHeight="1169" math="0" shadow="0">
      <root>
        <mxCell id="0" />
        <mxCell id="1" parent="0" />
        <mxCell id="_LIRofzzChph_EFBGV_p-5" style="edgeStyle=orthogonalEdgeStyle;rounded=0;orthogonalLoop=1;jettySize=auto;html=1;exitX=0.5;exitY=1;exitDx=0;exitDy=0;" parent="1" source="_LIRofzzChph_EFBGV_p-1" target="_LIRofzzChph_EFBGV_p-2" edge="1">
          <mxGeometry relative="1" as="geometry" />
        </mxCell>
        <mxCell id="_LIRofzzChph_EFBGV_p-6" style="edgeStyle=orthogonalEdgeStyle;rounded=0;orthogonalLoop=1;jettySize=auto;html=1;" parent="1" source="_LIRofzzChph_EFBGV_p-1" target="_LIRofzzChph_EFBGV_p-3" edge="1">
          <mxGeometry relative="1" as="geometry" />
        </mxCell>
        <mxCell id="_LIRofzzChph_EFBGV_p-7" style="edgeStyle=orthogonalEdgeStyle;rounded=0;orthogonalLoop=1;jettySize=auto;html=1;exitX=0.5;exitY=1;exitDx=0;exitDy=0;entryX=0.5;entryY=0;entryDx=0;entryDy=0;entryPerimeter=0;" parent="1" source="_LIRofzzChph_EFBGV_p-1" target="_LIRofzzChph_EFBGV_p-4" edge="1">
          <mxGeometry relative="1" as="geometry" />
        </mxCell>
        <mxCell id="_LIRofzzChph_EFBGV_p-1" value="Qirion API" style="rounded=0;whiteSpace=wrap;html=1;" parent="1" vertex="1">
          <mxGeometry x="320" y="480" width="160" height="80" as="geometry" />
        </mxCell>
        <mxCell id="_LIRofzzChph_EFBGV_p-2" value="i-Core" style="shape=cylinder3;whiteSpace=wrap;html=1;boundedLbl=1;backgroundOutline=1;size=15;" parent="1" vertex="1">
          <mxGeometry x="289" y="640" width="60" height="80" as="geometry" />
        </mxCell>
        <mxCell id="_LIRofzzChph_EFBGV_p-3" value="Tennet" style="shape=cylinder3;whiteSpace=wrap;html=1;boundedLbl=1;backgroundOutline=1;size=15;" parent="1" vertex="1">
          <mxGeometry x="370" y="640" width="60" height="80" as="geometry" />
        </mxCell>
        <mxCell id="_LIRofzzChph_EFBGV_p-4" value="Liander" style="shape=cylinder3;whiteSpace=wrap;html=1;boundedLbl=1;backgroundOutline=1;size=15;" parent="1" vertex="1">
          <mxGeometry x="450" y="640" width="60" height="80" as="geometry" />
        </mxCell>
        <mxCell id="eNnHhdQrDtm_9kjSp-nN-3" style="edgeStyle=orthogonalEdgeStyle;rounded=0;orthogonalLoop=1;jettySize=auto;html=1;exitX=0.5;exitY=1;exitDx=0;exitDy=0;entryX=0.25;entryY=0;entryDx=0;entryDy=0;startArrow=none;startFill=0;" edge="1" parent="1" source="_LIRofzzChph_EFBGV_p-8" target="_LIRofzzChph_EFBGV_p-1">
          <mxGeometry relative="1" as="geometry" />
        </mxCell>
        <mxCell id="_LIRofzzChph_EFBGV_p-8" value="Kafka Consumer" style="rounded=0;whiteSpace=wrap;html=1;" parent="1" vertex="1">
          <mxGeometry x="190" y="307" width="120" height="60" as="geometry" />
        </mxCell>
        <mxCell id="_LIRofzzChph_EFBGV_p-9" value="Inspector" style="rounded=0;whiteSpace=wrap;html=1;" parent="1" vertex="1">
          <mxGeometry x="340" y="307" width="120" height="60" as="geometry" />
        </mxCell>
        <mxCell id="eNnHhdQrDtm_9kjSp-nN-2" style="edgeStyle=orthogonalEdgeStyle;rounded=0;orthogonalLoop=1;jettySize=auto;html=1;exitX=0.5;exitY=1;exitDx=0;exitDy=0;startArrow=classic;startFill=1;entryX=0.75;entryY=0;entryDx=0;entryDy=0;" edge="1" parent="1" source="_LIRofzzChph_EFBGV_p-10" target="_LIRofzzChph_EFBGV_p-1">
          <mxGeometry relative="1" as="geometry" />
        </mxCell>
        <mxCell id="_LIRofzzChph_EFBGV_p-10" value="Mutatie Tool" style="rounded=0;whiteSpace=wrap;html=1;" parent="1" vertex="1">
          <mxGeometry x="490" y="307" width="120" height="60" as="geometry" />
        </mxCell>
        <mxCell id="eNnHhdQrDtm_9kjSp-nN-8" style="edgeStyle=orthogonalEdgeStyle;rounded=0;orthogonalLoop=1;jettySize=auto;html=1;exitX=0.5;exitY=1;exitDx=0;exitDy=0;entryX=1;entryY=0.5;entryDx=0;entryDy=0;startArrow=classic;startFill=1;" edge="1" parent="1" source="_LIRofzzChph_EFBGV_p-11" target="_LIRofzzChph_EFBGV_p-1">
          <mxGeometry relative="1" as="geometry" />
        </mxCell>
        <mxCell id="_LIRofzzChph_EFBGV_p-11" value="API" style="rounded=0;whiteSpace=wrap;html=1;" parent="1" vertex="1">
          <mxGeometry x="640" y="307" width="120" height="60" as="geometry" />
        </mxCell>
        <mxCell id="TJ5iqCwmINLxDIpcIWsS-1" value="Proxy &lt;br&gt;or cloud" style="ellipse;shape=cloud;whiteSpace=wrap;html=1;" vertex="1" parent="1">
          <mxGeometry x="269" y="570" width="80" height="50" as="geometry" />
        </mxCell>
        <mxCell id="eNnHhdQrDtm_9kjSp-nN-4" style="edgeStyle=orthogonalEdgeStyle;rounded=0;orthogonalLoop=1;jettySize=auto;html=1;exitX=0.5;exitY=1;exitDx=0;exitDy=0;entryX=0;entryY=0.5;entryDx=0;entryDy=0;startArrow=classic;startFill=1;" edge="1" parent="1" source="TJ5iqCwmINLxDIpcIWsS-2" target="_LIRofzzChph_EFBGV_p-1">
          <mxGeometry relative="1" as="geometry" />
        </mxCell>
        <mxCell id="eNnHhdQrDtm_9kjSp-nN-6" style="edgeStyle=orthogonalEdgeStyle;rounded=0;orthogonalLoop=1;jettySize=auto;html=1;exitX=0.5;exitY=0;exitDx=0;exitDy=0;entryX=0.5;entryY=1;entryDx=0;entryDy=0;startArrow=none;startFill=0;" edge="1" parent="1" source="TJ5iqCwmINLxDIpcIWsS-2" target="eNnHhdQrDtm_9kjSp-nN-5">
          <mxGeometry relative="1" as="geometry" />
        </mxCell>
        <mxCell id="TJ5iqCwmINLxDIpcIWsS-2" value="Kafka Producer" style="rounded=0;whiteSpace=wrap;html=1;" vertex="1" parent="1">
          <mxGeometry x="40" y="307" width="120" height="60" as="geometry" />
        </mxCell>
        <mxCell id="TJ5iqCwmINLxDIpcIWsS-10" value="" style="endArrow=classic;startArrow=classic;html=1;rounded=0;entryX=0.5;entryY=1;entryDx=0;entryDy=0;" edge="1" parent="1" source="_LIRofzzChph_EFBGV_p-1" target="_LIRofzzChph_EFBGV_p-9">
          <mxGeometry width="50" height="50" relative="1" as="geometry">
            <mxPoint x="340" y="420" as="sourcePoint" />
            <mxPoint x="390" y="370" as="targetPoint" />
          </mxGeometry>
        </mxCell>
        <mxCell id="eNnHhdQrDtm_9kjSp-nN-7" style="edgeStyle=orthogonalEdgeStyle;rounded=0;orthogonalLoop=1;jettySize=auto;html=1;exitX=1;exitY=0.5;exitDx=0;exitDy=0;entryX=0.5;entryY=0;entryDx=0;entryDy=0;startArrow=none;startFill=0;" edge="1" parent="1" source="eNnHhdQrDtm_9kjSp-nN-5" target="_LIRofzzChph_EFBGV_p-8">
          <mxGeometry relative="1" as="geometry" />
        </mxCell>
        <mxCell id="eNnHhdQrDtm_9kjSp-nN-5" value="Kafka&amp;nbsp;" style="rounded=1;whiteSpace=wrap;html=1;" vertex="1" parent="1">
          <mxGeometry x="40" y="200" width="120" height="60" as="geometry" />
        </mxCell>
      </root>
    </mxGraphModel>
  </diagram>
  <diagram id="rctde_vCmCBoc-vjCpzP" name="Page-2">
    <mxGraphModel dx="1038" dy="547" grid="1" gridSize="10" guides="1" tooltips="1" connect="1" arrows="1" fold="1" page="1" pageScale="1" pageWidth="827" pageHeight="1169" math="0" shadow="0">
      <root>
        <mxCell id="0" />
        <mxCell id="1" parent="0" />
        <mxCell id="A7LrbhBaHQNIeefW0-Py-1" style="edgeStyle=orthogonalEdgeStyle;rounded=0;orthogonalLoop=1;jettySize=auto;html=1;exitX=0.5;exitY=1;exitDx=0;exitDy=0;" edge="1" parent="1" source="A7LrbhBaHQNIeefW0-Py-4" target="A7LrbhBaHQNIeefW0-Py-5">
          <mxGeometry relative="1" as="geometry" />
        </mxCell>
        <mxCell id="A7LrbhBaHQNIeefW0-Py-2" style="edgeStyle=orthogonalEdgeStyle;rounded=0;orthogonalLoop=1;jettySize=auto;html=1;" edge="1" parent="1" source="A7LrbhBaHQNIeefW0-Py-4" target="A7LrbhBaHQNIeefW0-Py-6">
          <mxGeometry relative="1" as="geometry" />
        </mxCell>
        <mxCell id="A7LrbhBaHQNIeefW0-Py-3" style="edgeStyle=orthogonalEdgeStyle;rounded=0;orthogonalLoop=1;jettySize=auto;html=1;exitX=0.5;exitY=1;exitDx=0;exitDy=0;entryX=0.5;entryY=0;entryDx=0;entryDy=0;entryPerimeter=0;" edge="1" parent="1" source="A7LrbhBaHQNIeefW0-Py-4" target="A7LrbhBaHQNIeefW0-Py-7">
          <mxGeometry relative="1" as="geometry" />
        </mxCell>
        <mxCell id="A7LrbhBaHQNIeefW0-Py-4" value="Qirion API" style="rounded=0;whiteSpace=wrap;html=1;" vertex="1" parent="1">
          <mxGeometry x="340" y="500" width="120" height="60" as="geometry" />
        </mxCell>
        <mxCell id="A7LrbhBaHQNIeefW0-Py-5" value="i-Core" style="shape=cylinder3;whiteSpace=wrap;html=1;boundedLbl=1;backgroundOutline=1;size=15;" vertex="1" parent="1">
          <mxGeometry x="289" y="640" width="60" height="80" as="geometry" />
        </mxCell>
        <mxCell id="A7LrbhBaHQNIeefW0-Py-6" value="Tennet" style="shape=cylinder3;whiteSpace=wrap;html=1;boundedLbl=1;backgroundOutline=1;size=15;" vertex="1" parent="1">
          <mxGeometry x="370" y="640" width="60" height="80" as="geometry" />
        </mxCell>
        <mxCell id="A7LrbhBaHQNIeefW0-Py-7" value="Liander" style="shape=cylinder3;whiteSpace=wrap;html=1;boundedLbl=1;backgroundOutline=1;size=15;" vertex="1" parent="1">
          <mxGeometry x="450" y="640" width="60" height="80" as="geometry" />
        </mxCell>
        <mxCell id="A7LrbhBaHQNIeefW0-Py-8" value="Kafka Consumer" style="rounded=0;whiteSpace=wrap;html=1;" vertex="1" parent="1">
          <mxGeometry x="190" y="307" width="120" height="60" as="geometry" />
        </mxCell>
        <mxCell id="A7LrbhBaHQNIeefW0-Py-9" value="Inspector" style="rounded=0;whiteSpace=wrap;html=1;" vertex="1" parent="1">
          <mxGeometry x="340" y="307" width="120" height="60" as="geometry" />
        </mxCell>
        <mxCell id="A7LrbhBaHQNIeefW0-Py-10" value="Mutatie Tool" style="rounded=0;whiteSpace=wrap;html=1;" vertex="1" parent="1">
          <mxGeometry x="490" y="307" width="120" height="60" as="geometry" />
        </mxCell>
        <mxCell id="A7LrbhBaHQNIeefW0-Py-11" value="API" style="rounded=0;whiteSpace=wrap;html=1;" vertex="1" parent="1">
          <mxGeometry x="640" y="307" width="120" height="60" as="geometry" />
        </mxCell>
        <mxCell id="A7LrbhBaHQNIeefW0-Py-12" value="Proxy &lt;br&gt;or cloud" style="ellipse;shape=cloud;whiteSpace=wrap;html=1;" vertex="1" parent="1">
          <mxGeometry x="269" y="570" width="80" height="50" as="geometry" />
        </mxCell>
        <mxCell id="A7LrbhBaHQNIeefW0-Py-13" value="Kafka Producer" style="rounded=0;whiteSpace=wrap;html=1;" vertex="1" parent="1">
          <mxGeometry x="40" y="307" width="120" height="60" as="geometry" />
        </mxCell>
        <mxCell id="A7LrbhBaHQNIeefW0-Py-14" value="Content server API" style="rounded=0;whiteSpace=wrap;html=1;dashed=1;" vertex="1" parent="1">
          <mxGeometry x="490" y="500" width="120" height="60" as="geometry" />
        </mxCell>
        <mxCell id="A7LrbhBaHQNIeefW0-Py-15" value="" style="endArrow=classic;startArrow=classic;html=1;rounded=0;entryX=0.5;entryY=1;entryDx=0;entryDy=0;" edge="1" parent="1" source="A7LrbhBaHQNIeefW0-Py-4" target="A7LrbhBaHQNIeefW0-Py-9">
          <mxGeometry width="50" height="50" relative="1" as="geometry">
            <mxPoint x="340" y="420" as="sourcePoint" />
            <mxPoint x="390" y="370" as="targetPoint" />
          </mxGeometry>
        </mxCell>
        <mxCell id="A7LrbhBaHQNIeefW0-Py-16" value="" style="endArrow=classic;startArrow=classic;html=1;rounded=0;entryX=0.5;entryY=1;entryDx=0;entryDy=0;dashed=1;" edge="1" parent="1">
          <mxGeometry width="50" height="50" relative="1" as="geometry">
            <mxPoint x="549.5" y="500" as="sourcePoint" />
            <mxPoint x="549.5" y="367" as="targetPoint" />
          </mxGeometry>
        </mxCell>
        <mxCell id="A7LrbhBaHQNIeefW0-Py-17" value="" style="endArrow=classic;startArrow=classic;html=1;rounded=0;entryX=0.5;entryY=1;entryDx=0;entryDy=0;dashed=1;" edge="1" parent="1" target="A7LrbhBaHQNIeefW0-Py-9">
          <mxGeometry width="50" height="50" relative="1" as="geometry">
            <mxPoint x="550" y="500" as="sourcePoint" />
            <mxPoint x="490" y="420" as="targetPoint" />
          </mxGeometry>
        </mxCell>
      </root>
    </mxGraphModel>
  </diagram>
  <diagram id="HpVJbcLZ7ZJIM3ib_42-" name="Page-3">
    <mxGraphModel dx="1038" dy="547" grid="1" gridSize="10" guides="1" tooltips="1" connect="1" arrows="1" fold="1" page="1" pageScale="1" pageWidth="827" pageHeight="1169" math="0" shadow="0">
      <root>
        <mxCell id="0" />
        <mxCell id="1" parent="0" />
        <mxCell id="_8hG3KRM3qx4qLLlASOH-2" value="AWS" style="ellipse;shape=cloud;whiteSpace=wrap;html=1;" vertex="1" parent="1">
          <mxGeometry x="239" y="330" width="350" height="340" as="geometry" />
        </mxCell>
        <mxCell id="_8hG3KRM3qx4qLLlASOH-1" value="Qirion API" style="rounded=0;whiteSpace=wrap;html=1;" vertex="1" parent="1">
          <mxGeometry x="339" y="518" width="160" height="80" as="geometry" />
        </mxCell>
        <mxCell id="UIJSoI195DZLYgH4Dl49-1" value="BTP" style="ellipse;shape=cloud;whiteSpace=wrap;html=1;" vertex="1" parent="1">
          <mxGeometry x="70" y="460" width="170" height="120" as="geometry" />
        </mxCell>
        <mxCell id="UIJSoI195DZLYgH4Dl49-2" value="SQL Server" style="ellipse;shape=cloud;whiteSpace=wrap;html=1;" vertex="1" parent="1">
          <mxGeometry x="480" y="390" width="170" height="120" as="geometry" />
        </mxCell>
        <mxCell id="UIJSoI195DZLYgH4Dl49-4" value="On Prem" style="shape=cylinder3;whiteSpace=wrap;html=1;boundedLbl=1;backgroundOutline=1;size=15;" vertex="1" parent="1">
          <mxGeometry x="400" y="690" width="60" height="80" as="geometry" />
        </mxCell>
      </root>
    </mxGraphModel>
  </diagram>
  <diagram id="XlLXedr5EpkFzHEWrlZP" name="Page-4">
    <mxGraphModel dx="769" dy="405" grid="1" gridSize="10" guides="1" tooltips="1" connect="1" arrows="1" fold="1" page="1" pageScale="1" pageWidth="827" pageHeight="1169" math="0" shadow="0">
      <root>
        <mxCell id="0" />
        <mxCell id="1" parent="0" />
        <mxCell id="hN4-X3KHo6E84t8yu9hM-2" value="" style="shape=image;verticalLabelPosition=bottom;labelBackgroundColor=default;verticalAlign=top;aspect=fixed;imageAspect=0;image=https://miro.medium.com/max/1051/1*jH0iI7-MSQYgLUrqTUm6mg.png;" vertex="1" parent="1">
          <mxGeometry x="150" y="80" width="520" height="354" as="geometry" />
        </mxCell>
        <mxCell id="hN4-X3KHo6E84t8yu9hM-3" value="&lt;p style=&quot;line-height: 1.4;&quot;&gt;Frameworks&lt;/p&gt;" style="ellipse;whiteSpace=wrap;html=1;aspect=fixed;spacingTop=0;labelPosition=center;verticalLabelPosition=top;align=center;verticalAlign=bottom;" vertex="1" parent="1">
          <mxGeometry x="220" y="440" width="320" height="320" as="geometry" />
        </mxCell>
      </root>
    </mxGraphModel>
  </diagram>
</mxfile>
